<svg width="2011" height="1540" viewBox="0 0 2011 1540" fill="none" xmlns="http://www.w3.org/2000/svg">
<g opacity="0.04">
<path d="M791.835 1345.7C791.835 1345.7 830.734 1362.66 856.067 1358.91C885.222 1354.59 890.861 1317.82 920.298 1319.28C942.309 1320.37 970.164 1345.7 970.164 1345.7" stroke="white" stroke-opacity="0.6" stroke-width="52.8383" stroke-linecap="round" style="mix-blend-mode:hard-light"/>
<path d="M791.835 383.697C791.835 383.697 830.734 400.661 856.067 396.907C885.222 392.585 890.861 355.815 920.298 357.278C942.309 358.372 970.164 383.697 970.164 383.697" stroke="white" stroke-opacity="0.6" stroke-width="52.8383" stroke-linecap="round" style="mix-blend-mode:hard-light"/>
<path d="M1667.63 1345.7C1667.63 1345.7 1706.53 1362.66 1731.86 1358.91C1761.02 1354.59 1766.66 1317.82 1796.09 1319.28C1818.11 1320.37 1845.96 1345.7 1845.96 1345.7" stroke="white" stroke-opacity="0.6" stroke-width="52.8383" stroke-linecap="round" style="mix-blend-mode:hard-light"/>
<path d="M1667.63 383.697C1667.63 383.697 1706.53 400.661 1731.86 396.907C1761.02 392.585 1766.66 355.815 1796.09 357.278C1818.11 358.372 1845.96 383.697 1845.96 383.697" stroke="white" stroke-opacity="0.6" stroke-width="52.8383" stroke-linecap="round" style="mix-blend-mode:hard-light"/>
<path d="M1096.98 864.866C1096.98 864.866 1135.88 881.831 1161.21 878.076C1190.36 873.755 1196 836.984 1225.44 838.447C1247.45 839.541 1275.31 864.866 1275.31 864.866" stroke="white" stroke-opacity="0.6" stroke-width="52.8383" stroke-linecap="round" style="mix-blend-mode:hard-light"/>
<path d="M176.269 864.866C176.269 864.866 215.168 881.831 240.5 878.076C269.656 873.755 275.294 836.984 304.732 838.447C326.743 839.541 354.598 864.866 354.598 864.866" stroke="white" stroke-opacity="0.6" stroke-width="52.8383" stroke-linecap="round" style="mix-blend-mode:hard-light"/>
<path d="M1235.68 1002.75C1235.68 1002.75 1274.58 985.789 1299.91 989.544C1329.06 993.865 1334.7 1030.64 1364.14 1029.17C1386.15 1028.08 1414.01 1002.75 1414.01 1002.75" stroke="white" stroke-opacity="0.6" stroke-width="52.8383" stroke-linecap="round" style="mix-blend-mode:hard-light"/>
<path d="M1235.68 40.7522C1235.68 40.7522 1274.58 23.7879 1299.91 27.5426C1329.06 31.864 1334.7 68.6345 1364.14 67.1714C1386.15 66.0773 1414.01 40.7522 1414.01 40.7522" stroke="white" stroke-opacity="0.6" stroke-width="52.8383" stroke-linecap="round" style="mix-blend-mode:hard-light"/>
<path d="M365.166 1002.75C365.166 1002.75 404.065 985.789 429.398 989.544C458.553 993.865 464.192 1030.64 493.629 1029.17C515.64 1028.08 543.495 1002.75 543.495 1002.75" stroke="white" stroke-opacity="0.6" stroke-width="52.8383" stroke-linecap="round" style="mix-blend-mode:hard-light"/>
<path d="M365.166 40.7522C365.166 40.7522 404.065 23.7879 429.398 27.5426C458.553 31.864 464.192 68.6345 493.629 67.1714C515.64 66.0773 543.495 40.7522 543.495 40.7522" stroke="white" stroke-opacity="0.6" stroke-width="52.8383" stroke-linecap="round" style="mix-blend-mode:hard-light"/>
<path d="M1540.82 521.923C1540.82 521.923 1579.72 504.959 1605.05 508.714C1634.21 513.035 1639.84 549.805 1669.28 548.342C1691.29 547.248 1719.15 521.923 1719.15 521.923" stroke="white" stroke-opacity="0.6" stroke-width="52.8383" stroke-linecap="round" style="mix-blend-mode:hard-light"/>
<path d="M1540.82 1483.92C1540.82 1483.92 1579.72 1466.95 1605.05 1470.71C1634.21 1475.03 1639.84 1511.8 1669.28 1510.34C1691.29 1509.24 1719.15 1483.92 1719.15 1483.92" stroke="white" stroke-opacity="0.6" stroke-width="52.8383" stroke-linecap="round" style="mix-blend-mode:hard-light"/>
<path d="M620.11 521.923C620.11 521.923 659.01 504.959 684.342 508.714C713.497 513.035 719.136 549.805 748.574 548.342C770.585 547.248 798.44 521.923 798.44 521.923" stroke="white" stroke-opacity="0.6" stroke-width="52.8383" stroke-linecap="round" style="mix-blend-mode:hard-light"/>
<path d="M620.11 1483.92C620.11 1483.92 659.01 1466.95 684.342 1470.71C713.497 1475.03 719.136 1511.8 748.574 1510.34C770.585 1509.24 798.44 1483.92 798.44 1483.92" stroke="white" stroke-opacity="0.6" stroke-width="52.8383" stroke-linecap="round" style="mix-blend-mode:hard-light"/>
<path d="M897.512 1015.46C897.512 1015.46 930.302 1035.02 955.634 1031.27C984.789 1026.95 996.537 987.578 1025.97 989.041C1047.99 990.135 1075.84 1015.46 1075.84 1015.46" stroke="white" stroke-opacity="0.6" stroke-width="52.8383" stroke-linecap="round" style="mix-blend-mode:hard-light"/>
<path d="M897.512 53.4589C897.512 53.4589 930.302 73.0213 955.634 69.2666C984.789 64.9453 996.537 25.5766 1025.97 27.0398C1047.99 28.1338 1075.84 53.4589 1075.84 53.4589" stroke="white" stroke-opacity="0.6" stroke-width="52.8383" stroke-linecap="round" style="mix-blend-mode:hard-light"/>
<path d="M1773.31 1015.46C1773.31 1015.46 1806.1 1035.02 1831.43 1031.27C1860.58 1026.95 1872.33 987.578 1901.77 989.041C1923.78 990.135 1951.64 1015.46 1951.64 1015.46" stroke="white" stroke-opacity="0.6" stroke-width="52.8383" stroke-linecap="round" style="mix-blend-mode:hard-light"/>
<path d="M1773.31 53.4589C1773.31 53.4589 1806.1 73.0213 1831.43 69.2666C1860.58 64.9453 1872.33 25.5766 1901.77 27.0398C1923.78 28.1338 1951.64 53.4589 1951.64 53.4589" stroke="white" stroke-opacity="0.6" stroke-width="52.8383" stroke-linecap="round" style="mix-blend-mode:hard-light"/>
<path d="M27 1015.46C27 1015.46 59.79 1035.02 85.1222 1031.27C114.278 1026.95 126.026 987.578 155.463 989.041C177.474 990.135 205.329 1015.46 205.329 1015.46" stroke="white" stroke-opacity="0.6" stroke-width="52.8383" stroke-linecap="round" style="mix-blend-mode:hard-light"/>
<path d="M27 53.4589C27 53.4589 59.79 73.0213 85.1222 69.2666C114.278 64.9453 126.026 25.5766 155.463 27.0398C177.474 28.1338 205.329 53.4589 205.329 53.4589" stroke="white" stroke-opacity="0.6" stroke-width="52.8383" stroke-linecap="round" style="mix-blend-mode:hard-light"/>
<path d="M1202.65 534.63C1202.65 534.63 1235.44 554.193 1260.78 550.438C1289.93 546.117 1301.68 506.748 1331.12 508.211C1353.13 509.305 1380.98 534.63 1380.98 534.63" stroke="white" stroke-opacity="0.6" stroke-width="52.8383" stroke-linecap="round" style="mix-blend-mode:hard-light"/>
<path d="M1202.65 1496.63C1202.65 1496.63 1235.44 1516.19 1260.78 1512.43C1289.93 1508.11 1301.68 1468.74 1331.12 1470.21C1353.13 1471.3 1380.98 1496.63 1380.98 1496.63" stroke="white" stroke-opacity="0.6" stroke-width="52.8383" stroke-linecap="round" style="mix-blend-mode:hard-light"/>
<path d="M281.945 534.63C281.945 534.63 314.735 554.193 340.067 550.438C369.223 546.117 380.971 506.748 410.409 508.211C432.42 509.305 460.275 534.63 460.275 534.63" stroke="white" stroke-opacity="0.6" stroke-width="52.8383" stroke-linecap="round" style="mix-blend-mode:hard-light"/>
<path d="M281.945 1496.63C281.945 1496.63 314.735 1516.19 340.067 1512.43C369.223 1508.11 380.971 1468.74 410.409 1470.21C432.42 1471.3 460.275 1496.63 460.275 1496.63" stroke="white" stroke-opacity="0.6" stroke-width="52.8383" stroke-linecap="round" style="mix-blend-mode:hard-light"/>
<path d="M1341.35 1332.99C1341.35 1332.99 1374.14 1313.43 1399.48 1317.18C1428.63 1321.5 1440.38 1360.87 1469.82 1359.41C1491.83 1358.32 1519.68 1332.99 1519.68 1332.99" stroke="white" stroke-opacity="0.6" stroke-width="52.8383" stroke-linecap="round" style="mix-blend-mode:hard-light"/>
<path d="M1341.35 370.99C1341.35 370.99 1374.14 351.428 1399.48 355.183C1428.63 359.504 1440.38 398.873 1469.82 397.409C1491.83 396.315 1519.68 370.99 1519.68 370.99" stroke="white" stroke-opacity="0.6" stroke-width="52.8383" stroke-linecap="round" style="mix-blend-mode:hard-light"/>
<path d="M470.842 1332.99C470.842 1332.99 503.632 1313.43 528.964 1317.18C558.119 1321.5 569.867 1360.87 599.305 1359.41C621.316 1358.32 649.171 1332.99 649.171 1332.99" stroke="white" stroke-opacity="0.6" stroke-width="52.8383" stroke-linecap="round" style="mix-blend-mode:hard-light"/>
<path d="M470.842 370.99C470.842 370.99 503.632 351.428 528.964 355.183C558.119 359.504 569.867 398.873 599.305 397.409C621.316 396.315 649.171 370.99 649.171 370.99" stroke="white" stroke-opacity="0.6" stroke-width="52.8383" stroke-linecap="round" style="mix-blend-mode:hard-light"/>
<path d="M1646.5 852.159C1646.5 852.159 1679.29 832.597 1704.62 836.352C1733.77 840.673 1745.52 880.042 1774.96 878.578C1796.97 877.484 1824.82 852.159 1824.82 852.159" stroke="white" stroke-opacity="0.6" stroke-width="52.8383" stroke-linecap="round" style="mix-blend-mode:hard-light"/>
<path d="M725.787 852.159C725.787 852.159 758.577 832.597 783.909 836.352C813.065 840.673 824.813 880.042 854.25 878.578C876.261 877.484 904.117 852.159 904.117 852.159" stroke="white" stroke-opacity="0.6" stroke-width="52.8383" stroke-linecap="round" style="mix-blend-mode:hard-light"/>
<path d="M987.337 1226.77L1022.34 1097.32L1108.2 1206.29L987.337 1226.77Z" stroke="white" stroke-opacity="0.6" stroke-width="52.8383" stroke-linecap="round" stroke-linejoin="round" style="mix-blend-mode:hard-light"/>
<path d="M987.337 264.768L1022.34 135.314L1108.2 244.294L987.337 264.768Z" stroke="white" stroke-opacity="0.6" stroke-width="52.8383" stroke-linecap="round" stroke-linejoin="round" style="mix-blend-mode:hard-light"/>
<path d="M1863.13 1226.77L1898.14 1097.32L1984 1206.29L1863.13 1226.77Z" stroke="white" stroke-opacity="0.6" stroke-width="52.8383" stroke-linecap="round" stroke-linejoin="round" style="mix-blend-mode:hard-light"/>
<path d="M1863.13 264.768L1898.14 135.314L1984 244.294L1863.13 264.768Z" stroke="white" stroke-opacity="0.6" stroke-width="52.8383" stroke-linecap="round" stroke-linejoin="round" style="mix-blend-mode:hard-light"/>
<path d="M116.825 1226.77L151.831 1097.32L237.693 1206.29L116.825 1226.77Z" stroke="white" stroke-opacity="0.6" stroke-width="52.8383" stroke-linecap="round" stroke-linejoin="round" style="mix-blend-mode:hard-light"/>
<path d="M116.825 264.768L151.831 135.314L237.693 244.294L116.825 264.768Z" stroke="white" stroke-opacity="0.6" stroke-width="52.8383" stroke-linecap="round" stroke-linejoin="round" style="mix-blend-mode:hard-light"/>
<path d="M1292.48 745.939L1327.48 616.485L1413.35 725.464L1292.48 745.939Z" stroke="white" stroke-opacity="0.6" stroke-width="52.8383" stroke-linecap="round" stroke-linejoin="round" style="mix-blend-mode:hard-light"/>
<path d="M371.77 745.939L406.775 616.485L492.637 725.464L371.77 745.939Z" stroke="white" stroke-opacity="0.6" stroke-width="52.8383" stroke-linecap="round" stroke-linejoin="round" style="mix-blend-mode:hard-light"/>
<path d="M1431.18 1121.68L1466.18 1251.14L1552.05 1142.16L1431.18 1121.68Z" stroke="white" stroke-opacity="0.6" stroke-width="52.8383" stroke-linecap="round" stroke-linejoin="round" style="mix-blend-mode:hard-light"/>
<path d="M1431.18 159.681L1466.18 289.135L1552.05 180.156L1431.18 159.681Z" stroke="white" stroke-opacity="0.6" stroke-width="52.8383" stroke-linecap="round" stroke-linejoin="round" style="mix-blend-mode:hard-light"/>
<path d="M560.667 1121.68L595.672 1251.14L681.535 1142.16L560.667 1121.68Z" stroke="white" stroke-opacity="0.6" stroke-width="52.8383" stroke-linecap="round" stroke-linejoin="round" style="mix-blend-mode:hard-light"/>
<path d="M560.667 159.681L595.672 289.135L681.535 180.156L560.667 159.681Z" stroke="white" stroke-opacity="0.6" stroke-width="52.8383" stroke-linecap="round" stroke-linejoin="round" style="mix-blend-mode:hard-light"/>
<path d="M1736.32 640.85L1771.33 770.304L1857.19 661.325L1736.32 640.85Z" stroke="white" stroke-opacity="0.6" stroke-width="52.8383" stroke-linecap="round" stroke-linejoin="round" style="mix-blend-mode:hard-light"/>
<path d="M815.612 640.85L850.618 770.304L936.48 661.325L815.612 640.85Z" stroke="white" stroke-opacity="0.6" stroke-width="52.8383" stroke-linecap="round" stroke-linejoin="round" style="mix-blend-mode:hard-light"/>
<circle cx="839.39" cy="1166.01" r="42.2707" stroke="white" stroke-opacity="0.6" stroke-width="52.8383" stroke-linecap="round" style="mix-blend-mode:hard-light"/>
<circle cx="839.39" cy="204.004" r="42.2707" stroke="white" stroke-opacity="0.6" stroke-width="52.8383" stroke-linecap="round" style="mix-blend-mode:hard-light"/>
<circle cx="1715.18" cy="1166.01" r="42.2707" stroke="white" stroke-opacity="0.6" stroke-width="52.8383" stroke-linecap="round" style="mix-blend-mode:hard-light"/>
<circle cx="1715.18" cy="204.004" r="42.2707" stroke="white" stroke-opacity="0.6" stroke-width="52.8383" stroke-linecap="round" style="mix-blend-mode:hard-light"/>
<circle cx="1144.53" cy="685.174" r="42.2707" stroke="white" stroke-opacity="0.6" stroke-width="52.8383" stroke-linecap="round" style="mix-blend-mode:hard-light"/>
<circle cx="223.823" cy="685.174" r="42.2707" stroke="white" stroke-opacity="0.6" stroke-width="52.8383" stroke-linecap="round" style="mix-blend-mode:hard-light"/>
<circle cx="42.2707" cy="42.2707" r="42.2707" transform="matrix(1 0 0 -1 1240.96 1224.72)" stroke="white" stroke-opacity="0.6" stroke-width="52.8383" stroke-linecap="round" style="mix-blend-mode:hard-light"/>
<circle cx="42.2707" cy="42.2707" r="42.2707" transform="matrix(1 0 0 -1 1240.96 262.715)" stroke="white" stroke-opacity="0.6" stroke-width="52.8383" stroke-linecap="round" style="mix-blend-mode:hard-light"/>
<circle cx="42.2707" cy="42.2707" r="42.2707" transform="matrix(1 0 0 -1 370.449 1224.72)" stroke="white" stroke-opacity="0.6" stroke-width="52.8383" stroke-linecap="round" style="mix-blend-mode:hard-light"/>
<circle cx="42.2707" cy="42.2707" r="42.2707" transform="matrix(1 0 0 -1 370.449 262.715)" stroke="white" stroke-opacity="0.6" stroke-width="52.8383" stroke-linecap="round" style="mix-blend-mode:hard-light"/>
<circle cx="42.2707" cy="42.2707" r="42.2707" transform="matrix(1 0 0 -1 1546.1 743.885)" stroke="white" stroke-opacity="0.6" stroke-width="52.8383" stroke-linecap="round" style="mix-blend-mode:hard-light"/>
<circle cx="42.2707" cy="42.2707" r="42.2707" transform="matrix(1 0 0 -1 625.395 743.885)" stroke="white" stroke-opacity="0.6" stroke-width="52.8383" stroke-linecap="round" style="mix-blend-mode:hard-light"/>
<path d="M699.367 1031.27L774.662 1048.44" stroke="white" stroke-opacity="0.6" stroke-width="52.8383" stroke-linecap="round" stroke-linejoin="round" style="mix-blend-mode:hard-light"/>
<path d="M699.367 69.2666L774.662 86.4391" stroke="white" stroke-opacity="0.6" stroke-width="52.8383" stroke-linecap="round" stroke-linejoin="round" style="mix-blend-mode:hard-light"/>
<path d="M1575.16 1031.27L1650.46 1048.44" stroke="white" stroke-opacity="0.6" stroke-width="52.8383" stroke-linecap="round" stroke-linejoin="round" style="mix-blend-mode:hard-light"/>
<path d="M1575.16 69.2666L1650.46 86.4391" stroke="white" stroke-opacity="0.6" stroke-width="52.8383" stroke-linecap="round" stroke-linejoin="round" style="mix-blend-mode:hard-light"/>
<path d="M1004.51 550.438L1079.8 567.61" stroke="white" stroke-opacity="0.6" stroke-width="52.8383" stroke-linecap="round" stroke-linejoin="round" style="mix-blend-mode:hard-light"/>
<path d="M83.8008 550.438L159.095 567.61" stroke="white" stroke-opacity="0.6" stroke-width="52.8383" stroke-linecap="round" stroke-linejoin="round" style="mix-blend-mode:hard-light"/>
<path d="M1143.21 1317.18L1218.5 1300.01" stroke="white" stroke-opacity="0.6" stroke-width="52.8383" stroke-linecap="round" stroke-linejoin="round" style="mix-blend-mode:hard-light"/>
<path d="M1143.21 355.183L1218.5 338.01" stroke="white" stroke-opacity="0.6" stroke-width="52.8383" stroke-linecap="round" stroke-linejoin="round" style="mix-blend-mode:hard-light"/>
<path d="M272.698 1317.18L347.993 1300.01" stroke="white" stroke-opacity="0.6" stroke-width="52.8383" stroke-linecap="round" stroke-linejoin="round" style="mix-blend-mode:hard-light"/>
<path d="M272.698 355.183L347.993 338.01" stroke="white" stroke-opacity="0.6" stroke-width="52.8383" stroke-linecap="round" stroke-linejoin="round" style="mix-blend-mode:hard-light"/>
<path d="M1448.35 836.352L1523.65 819.179" stroke="white" stroke-opacity="0.6" stroke-width="52.8383" stroke-linecap="round" stroke-linejoin="round" style="mix-blend-mode:hard-light"/>
<path d="M527.643 836.352L602.937 819.179" stroke="white" stroke-opacity="0.6" stroke-width="52.8383" stroke-linecap="round" stroke-linejoin="round" style="mix-blend-mode:hard-light"/>
</g>
</svg>
