<svg width="82" height="82" viewBox="0 0 82 82" fill="none" xmlns="http://www.w3.org/2000/svg">
<rect x="0.175964" y="3.68826" width="78.263" height="78.3186" rx="19.4718" transform="rotate(-2 0.175964 3.68826)" fill="#FE6606"/>
<path d="M22.0701 26.7096C21.7849 26.3362 21.8152 25.8102 22.1415 25.4721L26.2661 21.1977C26.5468 20.9069 27.0004 20.863 27.3353 21.0894C32.1198 24.3246 36.3589 28.4108 39.7497 33.0881C39.9848 33.4122 39.9535 33.8586 39.6755 34.1466L35.5162 38.4568C35.2065 38.7776 34.7097 38.8256 34.3443 38.5698C29.7658 35.3641 25.708 31.4714 22.3142 27.0289L22.0701 26.7096Z" fill="white"/>
<path d="M62.1789 30.2911L62.057 30.2551C60.7036 29.8557 59.2405 30.3343 58.3703 31.445C43.1441 50.8714 40.1143 51.0773 29.9459 55.6005C28.3927 56.2915 27.6604 58.0797 28.2538 59.6738C28.8294 61.2196 30.4656 62.104 32.055 61.6667C41.5531 59.0528 57.5332 52.5794 64.3716 34.5183C65.0419 32.7473 63.9944 30.8269 62.1789 30.2911Z" fill="white"/>
</svg>
