<svg width="32" height="32" viewBox="0 0 32 32" fill="none" xmlns="http://www.w3.org/2000/svg">
<path fill-rule="evenodd" clip-rule="evenodd" d="M3.27719 16.2471C3.51756 23.1304 9.32251 28.5436 16.2058 28.3032C23.0891 28.0628 28.5023 22.2579 28.262 15.3746C28.0216 8.49128 22.2166 3.07807 15.3333 3.31844C8.45002 3.55881 3.03682 9.36377 3.27719 16.2471ZM14.8048 20.0596C14.636 20.2406 14.4021 20.3488 14.1523 20.3575C13.9024 20.3663 13.6616 20.2746 13.4806 20.1058L9.82177 16.6939C9.44684 16.3443 9.4259 15.7447 9.77553 15.3697C10.1252 14.9948 10.7248 14.9739 11.0997 15.3235L14.0733 18.0964L20.2702 11.4511C20.6198 11.0762 21.2194 11.0552 21.5944 11.4049C21.9693 11.7545 21.9898 12.3416 21.6406 12.7291L14.8048 20.0596Z" fill="#FC5A24"/>
</svg>
