<svg width="32" height="32" viewBox="0 0 32 32" fill="none" xmlns="http://www.w3.org/2000/svg">
<path fill-rule="evenodd" clip-rule="evenodd" d="M3.90402 16.2885C4.14439 23.1718 9.94934 28.585 16.8326 28.3446C23.716 28.1043 29.1292 22.2993 28.8888 15.416C28.6484 8.53271 22.8435 3.1195 15.9602 3.35987C9.07686 3.60024 3.66365 9.40519 3.90402 16.2885ZM15.4316 20.101C15.2628 20.282 15.0289 20.3902 14.7791 20.399C14.5292 20.4077 14.2884 20.316 14.1074 20.1473L10.4486 16.7354C10.0737 16.3857 10.0527 15.7861 10.4024 15.4112C10.752 15.0362 11.3516 15.0153 11.7266 15.3649L14.7001 18.1378L20.897 11.4925C21.2466 11.1176 21.8463 11.0967 22.2212 11.4463C22.5961 11.7959 22.6166 12.3831 22.2674 12.7705L15.4316 20.101Z" fill="#FC5A24"/>
</svg>
