<svg width="32" height="32" viewBox="0 0 32 32" fill="none" xmlns="http://www.w3.org/2000/svg">
<path fill-rule="evenodd" clip-rule="evenodd" d="M3.65036 16.2056C3.89073 23.089 9.69568 28.5022 16.579 28.2618C23.4623 28.0214 28.8755 22.2165 28.6351 15.3332C28.3948 8.44985 22.5898 3.03664 15.7065 3.27701C8.82319 3.51738 3.40998 9.32234 3.65036 16.2056ZM15.1779 20.0182C15.0091 20.1992 14.7753 20.3074 14.5254 20.3161C14.2756 20.3248 14.0347 20.2332 13.8537 20.0644L10.1949 16.6525C9.82001 16.3029 9.79907 15.7033 10.1487 15.3283C10.4983 14.9534 11.098 14.9324 11.4729 15.2821L14.4465 18.055L20.6433 11.4097C20.993 11.0347 21.5926 11.0138 21.9675 11.3634C22.3425 11.7131 22.363 12.3002 22.0138 12.6876L15.1779 20.0182Z" fill="#FC5A24"/>
</svg>
